<?xml version="1.0" encoding="utf-8"?>
<!-- Generator: Adobe Illustrator 24.1.1, SVG Export Plug-In . SVG Version: 6.00 Build 0)  -->
<svg version="1.1" id="Layer_1" xmlns="http://www.w3.org/2000/svg" xmlns:xlink="http://www.w3.org/1999/xlink" x="0px" y="0px"
	 viewBox="0 0 500 500" style="enable-background:new 0 0 500 500;" xml:space="preserve">
<style type="text/css">
	.st0{fill:#FA913A;}
</style>
<g id="XMLID_1_">
	<path id="XMLID_5_" class="st0" d="M229.4,431.5c-57.7-6.7-109.5-41-138.2-91.5c-25.8-45.5-30.8-99.6-13.8-149
		C104.5,112.1,180.7,61.8,263.5,68c85.3,6.4,154.3,70.6,166.9,155C443,307.1,396.6,387.7,317,419.9
		C291.5,430.2,257.2,434.7,229.4,431.5L229.4,431.5z M184.2,243.6H340l44.1,73.3c3.1-5.5,9.6-24,12-33.9c2.5-10.6,2.8-13.4,2.8-32.7
		c0-22.3-1.2-31-6.6-47.5c-3.6-10.9-15.1-32.8-22.1-42.2c-13.1-17.4-34.5-35.3-53.6-44.9c-10.2-5.1-29.4-11.3-41.5-13.3
		c-13.5-2.3-37.2-2.3-49.6-0.1c-27.3,4.9-50.7,15.7-71.7,33.2c-25.8,21.5-43.4,51.3-50.7,86c-3.3,15.6-3.3,40.3-0.1,56.4
		c5.5,27.4,18.4,53.4,36,72.3l5.7,6.2h39L184.2,243.6z"/>
</g>
</svg>
